<svg width="128" height="128" viewBox="0 0 128 128" fill="none" xmlns="http://www.w3.org/2000/svg">
<circle cx="64" cy="64" r="61" fill="black"/>
<path d="M29.2145 38.04C30.3238 38.04 31.2838 38.4453 32.0945 39.256C32.9052 40.0667 33.3105 41.0267 33.3105 42.136C33.3105 43.2453 32.9052 44.2053 32.0945 45.016C31.2838 45.8267 30.3238 46.232 29.2145 46.232C28.1052 46.232 27.1452 45.8267 26.3345 45.016C25.5238 44.2053 25.1185 43.2453 25.1185 42.136C25.1185 41.0267 25.5238 40.0667 26.3345 39.256C27.1452 38.4453 28.1052 38.04 29.2145 38.04ZM32.5425 53.336V81.048C32.5425 82.84 32.9052 84.056 33.6305 84.696C34.3985 85.336 35.6572 85.656 37.4065 85.656V87C36.6812 86.9573 35.5718 86.9147 34.0785 86.872C32.6278 86.7867 31.1558 86.744 29.6625 86.744C28.2118 86.744 26.7398 86.7867 25.2465 86.872C23.7532 86.9147 22.6438 86.9573 21.9185 87V85.656C23.6678 85.656 24.9052 85.336 25.6305 84.696C26.3985 84.056 26.7825 82.84 26.7825 81.048V61.016C26.7825 59.096 26.4412 57.688 25.7585 56.792C25.0758 55.8533 23.7958 55.384 21.9185 55.384V54.04C23.2838 54.168 24.6065 54.232 25.8865 54.232C27.1238 54.232 28.2972 54.168 29.4065 54.04C30.5585 53.8693 31.6038 53.6347 32.5425 53.336ZM55.1965 40.984C57.3298 40.984 58.9512 41.24 60.0605 41.752C61.1698 42.2213 62.1512 42.7547 63.0045 43.352C63.5165 43.6507 63.9218 43.8853 64.2205 44.056C64.5618 44.184 64.8818 44.248 65.1805 44.248C65.6072 44.248 65.9058 44.0133 66.0765 43.544C66.2898 43.0747 66.4605 42.3707 66.5885 41.432H68.0605C68.0178 42.1573 67.9538 43.032 67.8685 44.056C67.8258 45.0373 67.7832 46.36 67.7405 48.024C67.7405 49.6453 67.7405 51.8 67.7405 54.488H66.2685C66.1405 52.44 65.6925 50.4773 64.9245 48.6C64.1565 46.7227 63.0258 45.1867 61.5325 43.992C60.0818 42.7973 58.1618 42.2 55.7725 42.2C53.5112 42.2 51.6338 42.8827 50.1405 44.248C48.6898 45.6133 47.9645 47.4053 47.9645 49.624C47.9645 51.544 48.4552 53.1653 49.4365 54.488C50.4178 55.768 51.7192 56.9413 53.3405 58.008C55.0045 59.032 56.7965 60.1413 58.7165 61.336C60.9352 62.7013 62.8978 64.0667 64.6045 65.432C66.3538 66.7547 67.7192 68.2267 68.7005 69.848C69.7245 71.4693 70.2365 73.432 70.2365 75.736C70.2365 78.4667 69.6178 80.728 68.3805 82.52C67.1432 84.312 65.5005 85.656 63.4525 86.552C61.4045 87.448 59.1432 87.896 56.6685 87.896C54.4072 87.896 52.6152 87.64 51.2925 87.128C49.9698 86.616 48.8392 86.0827 47.9005 85.528C46.9618 84.9307 46.2365 84.632 45.7245 84.632C45.2978 84.632 44.9778 84.8667 44.7645 85.336C44.5938 85.8053 44.4445 86.5093 44.3165 87.448H42.8445C42.9298 86.552 42.9725 85.5067 42.9725 84.312C43.0152 83.0747 43.0365 81.4747 43.0365 79.512C43.0792 77.5493 43.1005 75.0747 43.1005 72.088H44.5725C44.7432 74.648 45.2125 77.0373 45.9805 79.256C46.7912 81.4747 48.0072 83.2667 49.6285 84.632C51.2925 85.9547 53.4898 86.616 56.2205 86.616C57.6285 86.616 58.9512 86.3387 60.1885 85.784C61.4685 85.1867 62.5138 84.2693 63.3245 83.032C64.1352 81.752 64.5405 80.1093 64.5405 78.104C64.5405 76.3547 64.1138 74.84 63.2605 73.56C62.4498 72.2373 61.2978 71.0213 59.8045 69.912C58.3112 68.76 56.5618 67.5867 54.5565 66.392C52.5512 65.1547 50.6738 63.896 48.9245 62.616C47.1752 61.336 45.7672 59.864 44.7005 58.2C43.6765 56.4933 43.1645 54.4453 43.1645 52.056C43.1645 49.5387 43.7192 47.4693 44.8285 45.848C45.9805 44.184 47.4738 42.968 49.3085 42.2C51.1432 41.3893 53.1058 40.984 55.1965 40.984ZM89.759 40.984C91.8923 40.984 93.5137 41.24 94.623 41.752C95.7323 42.2213 96.7137 42.7547 97.567 43.352C98.079 43.6507 98.4843 43.8853 98.783 44.056C99.1243 44.184 99.4443 44.248 99.743 44.248C100.17 44.248 100.468 44.0133 100.639 43.544C100.852 43.0747 101.023 42.3707 101.151 41.432H102.623C102.58 42.1573 102.516 43.032 102.431 44.056C102.388 45.0373 102.346 46.36 102.303 48.024C102.303 49.6453 102.303 51.8 102.303 54.488H100.831C100.703 52.44 100.255 50.4773 99.487 48.6C98.719 46.7227 97.5883 45.1867 96.095 43.992C94.6443 42.7973 92.7243 42.2 90.335 42.2C88.0737 42.2 86.1963 42.8827 84.703 44.248C83.2523 45.6133 82.527 47.4053 82.527 49.624C82.527 51.544 83.0177 53.1653 83.999 54.488C84.9803 55.768 86.2817 56.9413 87.903 58.008C89.567 59.032 91.359 60.1413 93.279 61.336C95.4977 62.7013 97.4603 64.0667 99.167 65.432C100.916 66.7547 102.282 68.2267 103.263 69.848C104.287 71.4693 104.799 73.432 104.799 75.736C104.799 78.4667 104.18 80.728 102.943 82.52C101.706 84.312 100.063 85.656 98.015 86.552C95.967 87.448 93.7057 87.896 91.231 87.896C88.9697 87.896 87.1777 87.64 85.855 87.128C84.5323 86.616 83.4017 86.0827 82.463 85.528C81.5243 84.9307 80.799 84.632 80.287 84.632C79.8603 84.632 79.5403 84.8667 79.327 85.336C79.1563 85.8053 79.007 86.5093 78.879 87.448H77.407C77.4923 86.552 77.535 85.5067 77.535 84.312C77.5777 83.0747 77.599 81.4747 77.599 79.512C77.6417 77.5493 77.663 75.0747 77.663 72.088H79.135C79.3057 74.648 79.775 77.0373 80.543 79.256C81.3537 81.4747 82.5697 83.2667 84.191 84.632C85.855 85.9547 88.0523 86.616 90.783 86.616C92.191 86.616 93.5137 86.3387 94.751 85.784C96.031 85.1867 97.0763 84.2693 97.887 83.032C98.6977 81.752 99.103 80.1093 99.103 78.104C99.103 76.3547 98.6763 74.84 97.823 73.56C97.0123 72.2373 95.8603 71.0213 94.367 69.912C92.8737 68.76 91.1243 67.5867 89.119 66.392C87.1137 65.1547 85.2363 63.896 83.487 62.616C81.7377 61.336 80.3297 59.864 79.263 58.2C78.239 56.4933 77.727 54.4453 77.727 52.056C77.727 49.5387 78.2817 47.4693 79.391 45.848C80.543 44.184 82.0363 42.968 83.871 42.2C85.7057 41.3893 87.6683 40.984 89.759 40.984Z" fill="white"/>
</svg>
